<?xml version="1.0" encoding="utf-8"?>
<!-- Generator: Adobe Illustrator 16.0.4, SVG Export Plug-In . SVG Version: 6.00 Build 0)  -->
<!DOCTYPE svg PUBLIC "-//W3C//DTD SVG 1.1//EN" "http://www.w3.org/Graphics/SVG/1.1/DTD/svg11.dtd">
<svg version="1.1" id="Calque_1" xmlns="http://www.w3.org/2000/svg" xmlns:xlink="http://www.w3.org/1999/xlink" x="0px" y="0px"
	 width="1920px" height="1080px" viewBox="0 0 1920 1080" enable-background="new 0 0 1920 1080" xml:space="preserve">
<g>
	<text transform="matrix(1 0 0 1 944.7139 489.3623)" fill="#666666" font-family="'TheSans-SemiBoldItalic'" font-size="7.6514">propriété</text>
	<g>
		<text transform="matrix(1 0 0 1 944.6133 595.8613)" font-family="'TheSans-BoldPlain'" font-size="10.4728">RDF</text>
		<path fill="#59ADD3" d="M931.059,490.112h-14.944c-1.376,0-2.491,1.115-2.491,2.491v0.997c0,1.375,1.115,2.491,2.491,2.491h14.944
			c1.375,0,2.491-1.115,2.491-2.491v-0.997C933.55,491.227,932.435,490.112,931.059,490.112z"/>
		<path fill="#59ADD3" d="M1000.799,500.075h-14.944c-1.376,0-2.491,1.115-2.491,2.491v0.996c0,1.375,1.115,2.491,2.491,2.491
			h14.944c1.375,0,2.49-1.115,2.49-2.491v-0.996C1003.289,501.19,1002.174,500.075,1000.799,500.075z"/>
		<path fill="#59ADD3" d="M941.022,559.852h-14.945c-1.375,0-2.491,1.115-2.491,2.49v0.996c0,1.375,1.115,2.49,2.491,2.49h14.945
			c1.375,0,2.49-1.115,2.49-2.49v-0.996C943.513,560.967,942.397,559.852,941.022,559.852z"/>
		<path fill="#59ADD3" d="M970.91,520h-14.944c-1.375,0-2.49,1.115-2.49,2.49v0.997c0,1.375,1.115,2.491,2.49,2.491h14.944
			c1.376,0,2.491-1.115,2.491-2.491v-0.997C973.401,521.115,972.286,520,970.91,520z"/>
		<path fill="#59ADD3" d="M990.836,549.889h-14.944c-1.376,0-2.49,1.115-2.49,2.49v0.996c0,1.377,1.114,2.492,2.49,2.492h14.944
			c1.375,0,2.49-1.115,2.49-2.492v-0.996C993.326,551.004,992.211,549.889,990.836,549.889z"/>
		<path fill="#59ADD3" d="M931.059,529.963h-14.944c-1.376,0-2.491,1.115-2.491,2.491v0.996c0,1.376,1.115,2.491,2.491,2.491h14.944
			c1.375,0,2.491-1.115,2.491-2.491v-0.996C933.55,531.078,932.435,529.963,931.059,529.963z"/>
		<path fill="#59ADD3" d="M1010.762,529.963h-14.944c-1.376,0-2.491,1.115-2.491,2.491v0.996c0,1.376,1.115,2.491,2.491,2.491
			h14.944c1.375,0,2.49-1.115,2.49-2.491v-0.996C1013.252,531.078,1012.137,529.963,1010.762,529.963z"/>
		<path fill="#59ADD3" d="M1010.762,569.814h-14.944c-1.376,0-2.491,1.115-2.491,2.49v0.996c0,1.375,1.115,2.49,2.491,2.49h14.944
			c1.375,0,2.49-1.115,2.49-2.49v-0.996C1013.252,570.93,1012.137,569.814,1010.762,569.814z"/>
		<path fill="#59ADD3" d="M936.041,510.038h-14.945c-1.375,0-2.491,1.115-2.491,2.491v0.996c0,1.375,1.115,2.491,2.491,2.491h14.945
			c1.375,0,2.49-1.115,2.49-2.491v-0.996C938.531,511.152,937.416,510.038,936.041,510.038z"/>
		<path fill="none" stroke="#1A8EC3" stroke-width="0.8966" stroke-miterlimit="10" d="M933.55,492.776
			c19.987-0.628,31.653,1.054,45.953,5.755"/>
		<path fill="#0081BC" d="M984.199,500.075c-1.306-0.718-3.31-2.245-4.575-3.672l-1.286,3.914
			C980.203,499.917,982.723,499.878,984.199,500.075"/>
		<path fill="none" stroke="#1A8EC3" stroke-width="0.8966" stroke-miterlimit="10" d="M970.249,520
			c8.628-4.017,13.216-7.224,16.444-10.448"/>
		<path fill="#0081BC" d="M990.198,506.052c-1.232,0.842-3.504,1.943-5.353,2.429l2.917,2.92
			C988.25,509.553,989.354,507.284,990.198,506.052"/>
		<path fill="none" stroke="#1A8EC3" stroke-width="0.8966" stroke-miterlimit="10" d="M966.293,525.978
			c7.688,8.134,11.316,13.638,13.801,19.379"/>
		<path fill="#0081BC" d="M982.053,549.889c-0.329-1.451-0.518-3.959-0.289-5.85l-3.775,1.633
			C979.522,546.801,981.221,548.654,982.053,549.889"/>
		<path fill="none" stroke="#1A8EC3" stroke-width="0.8966" stroke-miterlimit="10" d="M973.4,523.692
			c9.335,0.839,14.703,2.291,18.708,4.169"/>
		<path fill="#0081BC" d="M996.588,529.963c-1.21-0.872-3.018-2.63-4.102-4.202l-1.752,3.734
			C992.637,529.324,995.144,529.589,996.588,529.963"/>
		<path fill="none" stroke="#1A8EC3" stroke-width="0.8966" stroke-miterlimit="10" d="M953.476,521.952
			c-7.623-1.011-11.947-2.379-14.389-3.653"/>
		<path fill="#0081BC" d="M934.711,516.015c1.17,0.919,2.896,2.748,3.91,4.36l1.903-3.646
			C938.622,516.819,936.135,516.449,934.711,516.015"/>
		<path fill="none" stroke="#1A8EC3" stroke-width="0.8966" stroke-miterlimit="10" d="M973.4,551.4
			c-18.082-2.941-28.309-6.512-39.973-13.041"/>
		<path fill="#0081BC" d="M929.106,535.94c1.146,0.957,2.823,2.842,3.793,4.489l2.016-3.602
			C933.005,536.862,930.521,536.417,929.106,535.94"/>
		<path fill="none" stroke="#1A8EC3" stroke-width="0.8966" stroke-miterlimit="10" d="M924.03,535.94
			c1.416,9.72,3.247,15.261,5.557,19.554"/>
		<path fill="#0081BC" d="M931.932,559.852c-0.453-1.422-0.855-3.91-0.79-5.818l-3.631,1.953
			C929.14,556.982,930.995,558.691,931.932,559.852"/>
		<path fill="none" stroke="#1A8EC3" stroke-width="0.8966" stroke-miterlimit="10" d="M1003.816,535.94
			c2.293,13.009,2.293,20.864,0.856,29.013"/>
		<path fill="#0081BC" d="M1003.816,569.814c0.523-1.393,1.747-3.592,2.978-5.045l-4.051-0.715
			C1003.402,565.842,1003.8,568.326,1003.816,569.814"/>
		<path fill="none" stroke="#1A8EC3" stroke-width="0.8966" stroke-miterlimit="10" d="M993.326,573.129
			c-19.986,0.627-31.653-1.055-45.953-5.756"/>
		<path fill="#0081BC" d="M942.677,565.828c1.306,0.719,3.31,2.246,4.575,3.674l1.287-3.914
			C946.673,565.986,944.154,566.025,942.677,565.828"/>
		<text transform="matrix(1 0 0 1 893.2148 495.0713)" fill="#666666" font-family="'TheSans-SemiBoldItalic'" font-size="7.6514">sujet</text>
		<text transform="matrix(1 0 0 1 1007.4561 505.1689)" fill="#666666" font-family="'TheSans-SemiBoldItalic'" font-size="7.6514">objet</text>
	</g>
</g>
</svg>
