<?xml version="1.0" encoding="utf-8"?>
<!-- Generator: Adobe Illustrator 16.0.4, SVG Export Plug-In . SVG Version: 6.00 Build 0)  -->
<!DOCTYPE svg PUBLIC "-//W3C//DTD SVG 1.1//EN" "http://www.w3.org/Graphics/SVG/1.1/DTD/svg11.dtd">
<svg version="1.1" id="Calque_1" xmlns="http://www.w3.org/2000/svg" xmlns:xlink="http://www.w3.org/1999/xlink" x="0px" y="0px"
	 width="1920px" height="1080px" viewBox="0 0 1920 1080" enable-background="new 0 0 1920 1080" xml:space="preserve">
<line fill="none" stroke="#999999" stroke-width="0.6974" stroke-miterlimit="10" x1="1000.158" y1="516.804" x2="1000.158" y2="525.771"/>
<text transform="matrix(1 0 0 1 1000.6543 500.373)" fill="#666666" font-family="'TheSans-SemiBoldItalic'" font-size="7.6514">parent</text>
<text transform="matrix(1 0 0 1 1011.1162 515.9224)" fill="#666666" font-family="'TheSans-SemiBoldItalic'" font-size="7.6514">enfant</text>
<g>
	<text transform="matrix(1 0 0 1 896.3892 600.1562)"><tspan x="0" y="0" font-family="'TheSans-BoldPlain'" font-size="10.4728">L</tspan><tspan x="4.681" y="0" font-family="'TheSans-BoldPlain'" font-size="10.4728">angage</tspan><tspan x="38.644" y="0" font-family="'TheSans-BoldPlain'" font-size="10.4728" letter-spacing="3">s</tspan><tspan x="46.069" y="0" font-family="'TheSans-BoldPlain'" font-size="10.4728">d</tspan><tspan x="51.913" y="0" font-family="'TheSans-BoldPlain'" font-size="10.4728" letter-spacing="3">e</tspan><tspan x="60.354" y="0" font-family="'TheSans-BoldPlain'" font-size="10.4728">balisage</tspan></text>
	<rect x="937.89" y="480.938" fill="#0081BC" width="19.926" height="5.978"/>
	<rect x="898.039" y="495.883" fill="#0081BC" width="19.926" height="5.978"/>
	
		<line fill="none" stroke="#999999" stroke-width="0.6974" stroke-miterlimit="10" x1="939.883" y1="486.916" x2="915.972" y2="495.883"/>
	<rect x="885.586" y="510.827" fill="#0081BC" width="19.925" height="5.978"/>
	
		<line fill="none" stroke="#999999" stroke-width="0.6974" stroke-miterlimit="10" x1="905.511" y1="501.86" x2="898.039" y2="510.827"/>
	<path fill="#59ADD3" d="M903.021,525.771h-14.944c-1.375,0-2.49,1.115-2.49,2.491v0.996c0,1.375,1.115,2.491,2.49,2.491h14.944
		c1.375,0,2.491-1.115,2.491-2.491v-0.996C905.511,526.886,904.396,525.771,903.021,525.771z"/>
	
		<line fill="none" stroke="#999999" stroke-width="0.6974" stroke-miterlimit="10" x1="895.548" y1="516.804" x2="895.548" y2="525.771"/>
	<rect x="910.493" y="510.827" fill="#0081BC" width="19.925" height="5.978"/>
	
		<line fill="none" stroke="#999999" stroke-width="0.6974" stroke-miterlimit="10" x1="910.493" y1="501.86" x2="917.965" y2="510.827"/>
	<path fill="#59ADD3" d="M927.928,525.771h-14.944c-1.375,0-2.491,1.115-2.491,2.491v0.996c0,1.375,1.115,2.491,2.491,2.491h14.944
		c1.375,0,2.49-1.115,2.49-2.491v-0.996C930.418,526.886,929.303,525.771,927.928,525.771z"/>
	
		<line fill="none" stroke="#999999" stroke-width="0.6974" stroke-miterlimit="10" x1="920.456" y1="516.804" x2="920.456" y2="525.771"/>
	<rect x="937.89" y="540.715" fill="#0081BC" width="19.926" height="5.978"/>
	
		<line fill="none" stroke="#999999" stroke-width="0.6974" stroke-miterlimit="10" x1="947.853" y1="486.916" x2="947.853" y2="540.715"/>
	<rect x="912.983" y="555.66" fill="#0081BC" width="19.925" height="5.977"/>
	
		<line fill="none" stroke="#999999" stroke-width="0.6974" stroke-miterlimit="10" x1="942.872" y1="546.693" x2="927.927" y2="555.66"/>
	<path fill="#59ADD3" d="M930.418,570.604h-14.944c-1.375,0-2.491,1.115-2.491,2.49v0.996c0,1.377,1.115,2.492,2.491,2.492h14.944
		c1.376,0,2.491-1.115,2.491-2.492v-0.996C932.909,571.719,931.794,570.604,930.418,570.604z"/>
	
		<line fill="none" stroke="#999999" stroke-width="0.6974" stroke-miterlimit="10" x1="922.946" y1="561.637" x2="922.946" y2="570.604"/>
	<rect x="937.89" y="555.66" fill="#0081BC" width="19.926" height="5.977"/>
	
		<line fill="none" stroke="#999999" stroke-width="0.6974" stroke-miterlimit="10" x1="947.853" y1="546.693" x2="947.853" y2="555.66"/>
	<path fill="#59ADD3" d="M955.325,570.604h-14.944c-1.375,0-2.491,1.115-2.491,2.49v0.996c0,1.377,1.115,2.492,2.491,2.492h14.944
		c1.375,0,2.491-1.115,2.491-2.492v-0.996C957.816,571.719,956.701,570.604,955.325,570.604z"/>
	
		<line fill="none" stroke="#999999" stroke-width="0.6974" stroke-miterlimit="10" x1="947.853" y1="561.637" x2="947.853" y2="570.604"/>
	<rect x="962.797" y="555.66" fill="#0081BC" width="19.926" height="5.977"/>
	
		<line fill="none" stroke="#999999" stroke-width="0.6974" stroke-miterlimit="10" x1="952.834" y1="546.693" x2="967.779" y2="555.66"/>
	<path fill="#59ADD3" d="M980.232,570.604h-14.945c-1.375,0-2.49,1.115-2.49,2.49v0.996c0,1.377,1.115,2.492,2.49,2.492h14.945
		c1.375,0,2.49-1.115,2.49-2.492v-0.996C982.723,571.719,981.607,570.604,980.232,570.604z"/>
	
		<line fill="none" stroke="#999999" stroke-width="0.6974" stroke-miterlimit="10" x1="972.76" y1="561.637" x2="972.76" y2="570.604"/>
	<rect x="977.741" y="495.883" fill="#0081BC" width="19.926" height="5.978"/>
	
		<line fill="none" stroke="#999999" stroke-width="0.6974" stroke-miterlimit="10" x1="955.823" y1="486.916" x2="979.734" y2="495.883"/>
	<rect x="965.287" y="510.827" fill="#0081BC" width="19.926" height="5.978"/>
	
		<line fill="none" stroke="#999999" stroke-width="0.6974" stroke-miterlimit="10" x1="985.213" y1="501.86" x2="977.741" y2="510.827"/>
	<path fill="#59ADD3" d="M982.723,525.771h-14.944c-1.376,0-2.491,1.115-2.491,2.491v0.996c0,1.375,1.115,2.491,2.491,2.491h14.944
		c1.375,0,2.49-1.115,2.49-2.491v-0.996C985.213,526.886,984.098,525.771,982.723,525.771z"/>
	
		<line fill="none" stroke="#999999" stroke-width="0.6974" stroke-miterlimit="10" x1="975.25" y1="516.804" x2="975.25" y2="525.771"/>
	<rect x="990.195" y="510.827" fill="#0081BC" width="19.925" height="5.978"/>
	
		<line fill="none" stroke="#999999" stroke-width="0.6974" stroke-miterlimit="10" x1="990.195" y1="501.86" x2="997.667" y2="510.827"/>
	<path fill="#59ADD3" d="M1007.629,525.771h-14.943c-1.375,0-2.49,1.115-2.49,2.491v0.996c0,1.375,1.115,2.491,2.49,2.491h14.943
		c1.377,0,2.491-1.115,2.491-2.491v-0.996C1010.12,526.886,1009.006,525.771,1007.629,525.771z"/>
	<text transform="matrix(1 0 0 1 958.8892 485.8979)" fill="#666666" font-family="'TheSans-SemiBoldItalic'" font-size="7.6514">racine</text>
	
		<rect x="911.389" y="554.064" fill="none" stroke="#808080" stroke-width="0.6974" stroke-miterlimit="10" width="72.927" height="9.166"/>
	<text transform="matrix(1 0 0 1 989.4414 560.7539)" fill="#666666" font-family="'TheSans-SemiBoldItalic'" font-size="7.6514">frères</text>
</g>
</svg>
