<?xml version="1.0" encoding="utf-8"?>
<!-- Generator: Adobe Illustrator 16.0.4, SVG Export Plug-In . SVG Version: 6.00 Build 0)  -->
<!DOCTYPE svg PUBLIC "-//W3C//DTD SVG 1.1//EN" "http://www.w3.org/Graphics/SVG/1.1/DTD/svg11.dtd">
<svg version="1.1" id="Calque_1" xmlns="http://www.w3.org/2000/svg" xmlns:xlink="http://www.w3.org/1999/xlink" x="0px" y="0px"
	 width="1920px" height="1080px" viewBox="0 0 1920 1080" enable-background="new 0 0 1920 1080" xml:space="preserve">
<g>
	<text transform="matrix(1 0 0 1 814.1748 512.291)"><tspan x="0" y="0" font-family="'TheSans-BoldPlain'" font-size="10.4728">Donnée</tspan><tspan x="35.502" y="0" font-family="'TheSans-BoldPlain'" font-size="10.4728" letter-spacing="3">s</tspan><tspan x="42.928" y="0" font-family="'TheSans-BoldPlain'" font-size="10.4728">tabulaires</tspan></text>
	<rect x="805.062" y="401.27" fill="#0081BC" width="19.926" height="5.978"/>
	<rect x="827.976" y="401.27" fill="#0081BC" width="19.926" height="5.978"/>
	<rect x="850.89" y="401.27" fill="#0081BC" width="19.926" height="5.978"/>
	<rect x="873.804" y="401.27" fill="#0081BC" width="19.925" height="5.978"/>
	<rect x="896.718" y="401.27" fill="#0081BC" width="19.925" height="5.978"/>
	<path fill="#59ADD3" d="M822.497,412.229h-14.944c-1.375,0-2.491,1.115-2.491,2.491v0.996c0,1.375,1.115,2.491,2.491,2.491h14.944
		c1.375,0,2.491-1.115,2.491-2.491v-0.996C824.988,413.344,823.873,412.229,822.497,412.229z"/>
	<path fill="#59ADD3" d="M845.411,412.229h-14.944c-1.375,0-2.491,1.115-2.491,2.491v0.996c0,1.375,1.115,2.491,2.491,2.491h14.944
		c1.375,0,2.491-1.115,2.491-2.491v-0.996C847.902,413.344,846.787,412.229,845.411,412.229z"/>
	<path fill="#59ADD3" d="M868.325,412.229h-14.944c-1.375,0-2.491,1.115-2.491,2.491v0.996c0,1.375,1.115,2.491,2.491,2.491h14.944
		c1.375,0,2.491-1.115,2.491-2.491v-0.996C870.816,413.344,869.701,412.229,868.325,412.229z"/>
	<path fill="#59ADD3" d="M891.239,412.229h-14.944c-1.375,0-2.491,1.115-2.491,2.491v0.996c0,1.375,1.115,2.491,2.491,2.491h14.944
		c1.375,0,2.491-1.115,2.491-2.491v-0.996C893.73,413.344,892.615,412.229,891.239,412.229z"/>
	<path fill="#59ADD3" d="M914.153,412.229h-14.944c-1.375,0-2.491,1.115-2.491,2.491v0.996c0,1.375,1.115,2.491,2.491,2.491h14.944
		c1.375,0,2.49-1.115,2.49-2.491v-0.996C916.644,413.344,915.529,412.229,914.153,412.229z"/>
	<path fill="#59ADD3" d="M822.497,423.188h-14.944c-1.375,0-2.491,1.115-2.491,2.491v0.996c0,1.375,1.115,2.491,2.491,2.491h14.944
		c1.375,0,2.491-1.115,2.491-2.491v-0.996C824.988,424.303,823.873,423.188,822.497,423.188z"/>
	<path fill="#59ADD3" d="M845.411,423.188h-14.944c-1.375,0-2.491,1.115-2.491,2.491v0.996c0,1.375,1.115,2.491,2.491,2.491h14.944
		c1.375,0,2.491-1.115,2.491-2.491v-0.996C847.902,424.303,846.787,423.188,845.411,423.188z"/>
	<path fill="#59ADD3" d="M868.325,423.188h-14.944c-1.375,0-2.491,1.115-2.491,2.491v0.996c0,1.375,1.115,2.491,2.491,2.491h14.944
		c1.375,0,2.491-1.115,2.491-2.491v-0.996C870.816,424.303,869.701,423.188,868.325,423.188z"/>
	<path fill="#59ADD3" d="M891.239,423.188h-14.944c-1.375,0-2.491,1.115-2.491,2.491v0.996c0,1.375,1.115,2.491,2.491,2.491h14.944
		c1.375,0,2.491-1.115,2.491-2.491v-0.996C893.73,424.303,892.615,423.188,891.239,423.188z"/>
	<path fill="#59ADD3" d="M914.153,423.188h-14.944c-1.375,0-2.491,1.115-2.491,2.491v0.996c0,1.375,1.115,2.491,2.491,2.491h14.944
		c1.375,0,2.49-1.115,2.49-2.491v-0.996C916.644,424.303,915.529,423.188,914.153,423.188z"/>
	<path fill="#59ADD3" d="M822.497,434.147h-14.944c-1.375,0-2.491,1.115-2.491,2.491v0.996c0,1.375,1.115,2.491,2.491,2.491h14.944
		c1.375,0,2.491-1.115,2.491-2.491v-0.996C824.988,435.262,823.873,434.147,822.497,434.147z"/>
	<path fill="#59ADD3" d="M845.411,434.147h-14.944c-1.375,0-2.491,1.115-2.491,2.491v0.996c0,1.375,1.115,2.491,2.491,2.491h14.944
		c1.375,0,2.491-1.115,2.491-2.491v-0.996C847.902,435.262,846.787,434.147,845.411,434.147z"/>
	<path fill="#59ADD3" d="M868.325,434.147h-14.944c-1.375,0-2.491,1.115-2.491,2.491v0.996c0,1.375,1.115,2.491,2.491,2.491h14.944
		c1.375,0,2.491-1.115,2.491-2.491v-0.996C870.816,435.262,869.701,434.147,868.325,434.147z"/>
	<path fill="#59ADD3" d="M891.239,434.147h-14.944c-1.375,0-2.491,1.115-2.491,2.491v0.996c0,1.375,1.115,2.491,2.491,2.491h14.944
		c1.375,0,2.491-1.115,2.491-2.491v-0.996C893.73,435.262,892.615,434.147,891.239,434.147z"/>
	<path fill="#59ADD3" d="M914.153,434.147h-14.944c-1.375,0-2.491,1.115-2.491,2.491v0.996c0,1.375,1.115,2.491,2.491,2.491h14.944
		c1.375,0,2.49-1.115,2.49-2.491v-0.996C916.644,435.262,915.529,434.147,914.153,434.147z"/>
	<path fill="#59ADD3" d="M822.497,445.106h-14.944c-1.375,0-2.491,1.115-2.491,2.491v0.996c0,1.375,1.115,2.491,2.491,2.491h14.944
		c1.375,0,2.491-1.115,2.491-2.491v-0.996C824.988,446.221,823.873,445.106,822.497,445.106z"/>
	<path fill="#59ADD3" d="M845.411,445.106h-14.944c-1.375,0-2.491,1.115-2.491,2.491v0.996c0,1.375,1.115,2.491,2.491,2.491h14.944
		c1.375,0,2.491-1.115,2.491-2.491v-0.996C847.902,446.221,846.787,445.106,845.411,445.106z"/>
	<path fill="#59ADD3" d="M868.325,445.106h-14.944c-1.375,0-2.491,1.115-2.491,2.491v0.996c0,1.375,1.115,2.491,2.491,2.491h14.944
		c1.375,0,2.491-1.115,2.491-2.491v-0.996C870.816,446.221,869.701,445.106,868.325,445.106z"/>
	<path fill="#59ADD3" d="M891.239,445.106h-14.944c-1.375,0-2.491,1.115-2.491,2.491v0.996c0,1.375,1.115,2.491,2.491,2.491h14.944
		c1.375,0,2.491-1.115,2.491-2.491v-0.996C893.73,446.221,892.615,445.106,891.239,445.106z"/>
	<path fill="#59ADD3" d="M914.153,445.106h-14.944c-1.375,0-2.491,1.115-2.491,2.491v0.996c0,1.375,1.115,2.491,2.491,2.491h14.944
		c1.375,0,2.49-1.115,2.49-2.491v-0.996C916.644,446.221,915.529,445.106,914.153,445.106z"/>
	
		<rect x="803.467" y="399.676" fill="none" stroke="#808080" stroke-width="0.6974" stroke-miterlimit="10" width="114.771" height="9.166"/>
	<text transform="matrix(1 0 0 1 921.728 406.3682)" fill="#666666" font-family="'TheSans-SemiBoldItalic'" font-size="7.6514">entête</text>
	
		<rect x="803.467" y="432.553" fill="none" stroke="#808080" stroke-width="0.6974" stroke-miterlimit="10" width="114.771" height="9.166"/>
	<text transform="matrix(1 0 0 1 921.728 439.2451)" fill="#666666" font-family="'TheSans-SemiBoldItalic'" font-size="7.6514">ligne</text>
	
		<rect x="826.382" y="397.783" fill="none" stroke="#808080" stroke-width="0.6974" stroke-miterlimit="10" width="23.114" height="55.792"/>
	<text transform="matrix(1 0 0 1 825.6621 462.7773)" fill="#666666" font-family="'TheSans-SemiBoldItalic'" font-size="7.6514">colonne</text>
</g>
<g>
	<text transform="matrix(1 0 0 1 990.6719 512.291)"><tspan x="0" y="0" font-family="'TheSans-BoldPlain'" font-size="10.4728">Modèl</tspan><tspan x="29.03" y="0" font-family="'TheSans-BoldPlain'" font-size="10.4728" letter-spacing="3">e</tspan><tspan x="37.472" y="0" font-family="'TheSans-BoldPlain'" font-size="10.4728">relationnel</tspan></text>
	<rect x="973.23" y="401.27" fill="#0081BC" width="7.971" height="5.978"/>
	<rect x="984.19" y="401.27" fill="#0081BC" width="19.925" height="5.978"/>
	<rect x="1007.104" y="401.27" fill="#0081BC" width="19.926" height="5.978"/>
	<rect x="1030.018" y="401.27" fill="#0081BC" width="7.971" height="5.978"/>
	<rect x="1040.977" y="401.27" fill="#0081BC" width="7.971" height="5.978"/>
	<path fill="#59ADD3" d="M978.711,412.229h-2.989c-1.376,0-2.491,1.115-2.491,2.491v0.996c0,1.375,1.115,2.491,2.491,2.491h2.989
		c1.375,0,2.49-1.115,2.49-2.491v-0.996C981.201,413.344,980.086,412.229,978.711,412.229z"/>
	<path fill="#59ADD3" d="M1001.625,412.229h-14.944c-1.376,0-2.49,1.115-2.49,2.491v0.996c0,1.375,1.114,2.491,2.49,2.491h14.944
		c1.375,0,2.49-1.115,2.49-2.491v-0.996C1004.115,413.344,1003,412.229,1001.625,412.229z"/>
	<path fill="#59ADD3" d="M1024.539,412.229h-14.944c-1.376,0-2.491,1.115-2.491,2.491v0.996c0,1.375,1.115,2.491,2.491,2.491h14.944
		c1.376,0,2.49-1.115,2.49-2.491v-0.996C1027.029,413.344,1025.915,412.229,1024.539,412.229z"/>
	<path fill="#59ADD3" d="M1035.497,412.229h-2.988c-1.376,0-2.491,1.115-2.491,2.491v0.996c0,1.375,1.115,2.491,2.491,2.491h2.988
		c1.376,0,2.491-1.115,2.491-2.491v-0.996C1037.988,413.344,1036.873,412.229,1035.497,412.229z"/>
	<path fill="#59ADD3" d="M1046.456,412.229h-2.988c-1.376,0-2.491,1.115-2.491,2.491v0.996c0,1.375,1.115,2.491,2.491,2.491h2.988
		c1.376,0,2.491-1.115,2.491-2.491v-0.996C1048.947,413.344,1047.832,412.229,1046.456,412.229z"/>
	<path fill="#59ADD3" d="M978.711,423.188h-2.989c-1.376,0-2.491,1.115-2.491,2.491v0.996c0,1.375,1.115,2.491,2.491,2.491h2.989
		c1.375,0,2.49-1.115,2.49-2.491v-0.996C981.201,424.303,980.086,423.188,978.711,423.188z"/>
	<path fill="#59ADD3" d="M1001.625,423.188h-14.944c-1.376,0-2.49,1.115-2.49,2.491v0.996c0,1.375,1.114,2.491,2.49,2.491h14.944
		c1.375,0,2.49-1.115,2.49-2.491v-0.996C1004.115,424.303,1003,423.188,1001.625,423.188z"/>
	<path fill="#59ADD3" d="M1024.539,423.188h-14.944c-1.376,0-2.491,1.115-2.491,2.491v0.996c0,1.375,1.115,2.491,2.491,2.491h14.944
		c1.376,0,2.49-1.115,2.49-2.491v-0.996C1027.029,424.303,1025.915,423.188,1024.539,423.188z"/>
	<path fill="#59ADD3" d="M1035.497,423.188h-2.988c-1.376,0-2.491,1.115-2.491,2.491v0.996c0,1.375,1.115,2.491,2.491,2.491h2.988
		c1.376,0,2.491-1.115,2.491-2.491v-0.996C1037.988,424.303,1036.873,423.188,1035.497,423.188z"/>
	<path fill="#59ADD3" d="M1046.456,423.188h-2.988c-1.376,0-2.491,1.115-2.491,2.491v0.996c0,1.375,1.115,2.491,2.491,2.491h2.988
		c1.376,0,2.491-1.115,2.491-2.491v-0.996C1048.947,424.303,1047.832,423.188,1046.456,423.188z"/>
	<path fill="#59ADD3" d="M978.711,434.147h-2.989c-1.376,0-2.491,1.115-2.491,2.491v0.996c0,1.375,1.115,2.491,2.491,2.491h2.989
		c1.375,0,2.49-1.115,2.49-2.491v-0.996C981.201,435.262,980.086,434.147,978.711,434.147z"/>
	<path fill="#59ADD3" d="M1001.625,434.147h-14.944c-1.376,0-2.49,1.115-2.49,2.491v0.996c0,1.375,1.114,2.491,2.49,2.491h14.944
		c1.375,0,2.49-1.115,2.49-2.491v-0.996C1004.115,435.262,1003,434.147,1001.625,434.147z"/>
	<path fill="#59ADD3" d="M1024.539,434.147h-14.944c-1.376,0-2.491,1.115-2.491,2.491v0.996c0,1.375,1.115,2.491,2.491,2.491h14.944
		c1.376,0,2.49-1.115,2.49-2.491v-0.996C1027.029,435.262,1025.915,434.147,1024.539,434.147z"/>
	<path fill="#59ADD3" d="M1035.497,434.147h-2.988c-1.376,0-2.491,1.115-2.491,2.491v0.996c0,1.375,1.115,2.491,2.491,2.491h2.988
		c1.376,0,2.491-1.115,2.491-2.491v-0.996C1037.988,435.262,1036.873,434.147,1035.497,434.147z"/>
	<path fill="#59ADD3" d="M1046.456,434.147h-2.988c-1.376,0-2.491,1.115-2.491,2.491v0.996c0,1.375,1.115,2.491,2.491,2.491h2.988
		c1.376,0,2.491-1.115,2.491-2.491v-0.996C1048.947,435.262,1047.832,434.147,1046.456,434.147z"/>
	<path fill="#59ADD3" d="M978.711,445.106h-2.989c-1.376,0-2.491,1.115-2.491,2.491v0.996c0,1.375,1.115,2.491,2.491,2.491h2.989
		c1.375,0,2.49-1.115,2.49-2.491v-0.996C981.201,446.221,980.086,445.106,978.711,445.106z"/>
	<path fill="#59ADD3" d="M1001.625,445.106h-14.944c-1.376,0-2.49,1.115-2.49,2.491v0.996c0,1.375,1.114,2.491,2.49,2.491h14.944
		c1.375,0,2.49-1.115,2.49-2.491v-0.996C1004.115,446.221,1003,445.106,1001.625,445.106z"/>
	<path fill="#59ADD3" d="M1024.539,445.106h-14.944c-1.376,0-2.491,1.115-2.491,2.491v0.996c0,1.375,1.115,2.491,2.491,2.491h14.944
		c1.376,0,2.49-1.115,2.49-2.491v-0.996C1027.029,446.221,1025.915,445.106,1024.539,445.106z"/>
	<path fill="#59ADD3" d="M1035.497,445.106h-2.988c-1.376,0-2.491,1.115-2.491,2.491v0.996c0,1.375,1.115,2.491,2.491,2.491h2.988
		c1.376,0,2.491-1.115,2.491-2.491v-0.996C1037.988,446.221,1036.873,445.106,1035.497,445.106z"/>
	<path fill="#59ADD3" d="M1046.456,445.106h-2.988c-1.376,0-2.491,1.115-2.491,2.491v0.996c0,1.375,1.115,2.491,2.491,2.491h2.988
		c1.376,0,2.491-1.115,2.491-2.491v-0.996C1048.947,446.221,1047.832,445.106,1046.456,445.106z"/>
	<rect x="1065.891" y="350.454" fill="#0081BC" width="7.971" height="5.978"/>
	<rect x="1076.85" y="350.454" fill="#0081BC" width="19.925" height="5.978"/>
	<rect x="1099.764" y="350.454" fill="#0081BC" width="19.925" height="5.978"/>
	<path fill="#59ADD3" d="M1071.37,361.413h-2.988c-1.376,0-2.491,1.115-2.491,2.49v0.997c0,1.375,1.115,2.491,2.491,2.491h2.988
		c1.376,0,2.491-1.115,2.491-2.491v-0.997C1073.861,362.527,1072.746,361.413,1071.37,361.413z"/>
	<path fill="#59ADD3" d="M1094.284,361.413h-14.944c-1.376,0-2.49,1.115-2.49,2.49v0.997c0,1.375,1.114,2.491,2.49,2.491h14.944
		c1.376,0,2.49-1.115,2.49-2.491v-0.997C1096.774,362.527,1095.66,361.413,1094.284,361.413z"/>
	<path fill="#59ADD3" d="M1117.198,361.413h-14.944c-1.376,0-2.49,1.115-2.49,2.49v0.997c0,1.375,1.114,2.491,2.49,2.491h14.944
		c1.375,0,2.49-1.115,2.49-2.491v-0.997C1119.688,362.527,1118.573,361.413,1117.198,361.413z"/>
	<path fill="#59ADD3" d="M1071.37,372.372h-2.988c-1.376,0-2.491,1.115-2.491,2.49v0.997c0,1.375,1.115,2.491,2.491,2.491h2.988
		c1.376,0,2.491-1.115,2.491-2.491v-0.997C1073.861,373.486,1072.746,372.372,1071.37,372.372z"/>
	<path fill="#59ADD3" d="M1094.284,372.372h-14.944c-1.376,0-2.49,1.115-2.49,2.49v0.997c0,1.375,1.114,2.491,2.49,2.491h14.944
		c1.376,0,2.49-1.115,2.49-2.491v-0.997C1096.774,373.486,1095.66,372.372,1094.284,372.372z"/>
	<path fill="#59ADD3" d="M1117.198,372.372h-14.944c-1.376,0-2.49,1.115-2.49,2.49v0.997c0,1.375,1.114,2.491,2.49,2.491h14.944
		c1.375,0,2.49-1.115,2.49-2.491v-0.997C1119.688,373.486,1118.573,372.372,1117.198,372.372z"/>
	<path fill="#59ADD3" d="M1071.37,383.331h-2.988c-1.376,0-2.491,1.115-2.491,2.49v0.997c0,1.375,1.115,2.491,2.491,2.491h2.988
		c1.376,0,2.491-1.115,2.491-2.491v-0.997C1073.861,384.445,1072.746,383.331,1071.37,383.331z"/>
	<path fill="#59ADD3" d="M1094.284,383.331h-14.944c-1.376,0-2.49,1.115-2.49,2.49v0.997c0,1.375,1.114,2.491,2.49,2.491h14.944
		c1.376,0,2.49-1.115,2.49-2.491v-0.997C1096.774,384.445,1095.66,383.331,1094.284,383.331z"/>
	<path fill="#59ADD3" d="M1117.198,383.331h-14.944c-1.376,0-2.49,1.115-2.49,2.49v0.997c0,1.375,1.114,2.491,2.49,2.491h14.944
		c1.375,0,2.49-1.115,2.49-2.491v-0.997C1119.688,384.445,1118.573,383.331,1117.198,383.331z"/>
	<rect x="1065.891" y="463.046" fill="#0081BC" width="7.971" height="5.978"/>
	<rect x="1076.85" y="463.046" fill="#0081BC" width="19.925" height="5.978"/>
	<rect x="1099.764" y="463.046" fill="#0081BC" width="19.925" height="5.978"/>
	<path fill="#59ADD3" d="M1071.37,474.005h-2.988c-1.376,0-2.491,1.115-2.491,2.491v0.996c0,1.375,1.115,2.491,2.491,2.491h2.988
		c1.376,0,2.491-1.115,2.491-2.491v-0.996C1073.861,475.121,1072.746,474.005,1071.37,474.005z"/>
	<path fill="#59ADD3" d="M1094.284,474.005h-14.944c-1.376,0-2.49,1.115-2.49,2.491v0.996c0,1.375,1.114,2.491,2.49,2.491h14.944
		c1.376,0,2.49-1.115,2.49-2.491v-0.996C1096.774,475.121,1095.66,474.005,1094.284,474.005z"/>
	<path fill="#59ADD3" d="M1117.198,474.005h-14.944c-1.376,0-2.49,1.115-2.49,2.491v0.996c0,1.375,1.114,2.491,2.49,2.491h14.944
		c1.375,0,2.49-1.115,2.49-2.491v-0.996C1119.688,475.121,1118.573,474.005,1117.198,474.005z"/>
	<path fill="#59ADD3" d="M1071.37,484.964h-2.988c-1.376,0-2.491,1.115-2.491,2.491v0.996c0,1.375,1.115,2.491,2.491,2.491h2.988
		c1.376,0,2.491-1.115,2.491-2.491v-0.996C1073.861,486.08,1072.746,484.964,1071.37,484.964z"/>
	<path fill="#59ADD3" d="M1094.284,484.964h-14.944c-1.376,0-2.49,1.115-2.49,2.491v0.996c0,1.375,1.114,2.491,2.49,2.491h14.944
		c1.376,0,2.49-1.115,2.49-2.491v-0.996C1096.774,486.08,1095.66,484.964,1094.284,484.964z"/>
	<path fill="#59ADD3" d="M1117.198,484.964h-14.944c-1.376,0-2.49,1.115-2.49,2.491v0.996c0,1.375,1.114,2.491,2.49,2.491h14.944
		c1.375,0,2.49-1.115,2.49-2.491v-0.996C1119.688,486.08,1118.573,484.964,1117.198,484.964z"/>
	<circle fill="none" stroke="#808080" stroke-width="0.6974" stroke-miterlimit="10" cx="1034.005" cy="415.218" r="4.65"/>
	<circle fill="none" stroke="#808080" stroke-width="0.6974" stroke-miterlimit="10" cx="1069.878" cy="375.36" r="4.65"/>
	<circle fill="none" stroke="#808080" stroke-width="0.6974" stroke-miterlimit="10" cx="1044.964" cy="448.095" r="4.65"/>
	<circle fill="none" stroke="#808080" stroke-width="0.6974" stroke-miterlimit="10" cx="1069.878" cy="476.995" r="4.65"/>
	<path fill="none" stroke="#808080" stroke-width="0.6974" stroke-miterlimit="10" d="M1036.189,411.11
		c8.2-15.434,15.34-23.366,29.826-33.143"/>
	<path fill="none" stroke="#808080" stroke-width="0.6974" stroke-miterlimit="10" d="M1046.988,452.287
		c4.966,10.289,9.601,15.664,19.046,22.091"/>
	<text transform="matrix(1 0 0 1 1029.8828 471.77)" fill="#666666" font-family="'TheSans-SemiBoldItalic'" font-size="7.6514">relation</text>
	
		<rect x="971.639" y="399.676" fill="none" stroke="#808080" stroke-width="0.6974" stroke-miterlimit="10" width="11.158" height="53.002"/>
	<text transform="matrix(1 0 0 1 971.6191 394.6909)" fill="#666666" font-family="'TheSans-SemiBoldItalic'" font-size="7.6514">clés</text>
	
		<rect x="1064.3" y="348.859" fill="none" stroke="#808080" stroke-width="0.6974" stroke-miterlimit="10" width="56.987" height="9.166"/>
	<text transform="matrix(1 0 0 1 1032.9629 355.5513)" fill="#666666" font-family="'TheSans-SemiBoldItalic'" font-size="7.6514">attributs</text>
	<text transform="matrix(1 0 0 1 1081.9912 398.9761)" fill="#666666" font-family="'TheSans-SemiBoldItalic'" font-size="7.6514">table</text>
	
		<text transform="matrix(1 0 0 1 1097.7832 398.9761)" fill="#666666" font-family="'MathDesign-CH-Regular-Italic-T1-10'" font-size="7.6514">/</text>
	<text transform="matrix(1 0 0 1 1101.6553 398.9761)" fill="#666666" font-family="'CharterBT-Italic'" font-size="7.6514">entité</text>
</g>
<rect x="798.586" y="628.826" fill="#0081BC" width="19.925" height="5.979"/>
<line fill="none" stroke="#999999" stroke-width="0.6974" stroke-miterlimit="10" x1="818.511" y1="619.86" x2="811.039" y2="628.826"/>
<path fill="#59ADD3" d="M816.021,643.771h-14.944c-1.375,0-2.49,1.115-2.49,2.49v0.996c0,1.375,1.115,2.49,2.49,2.49h14.944
	c1.375,0,2.491-1.115,2.491-2.49v-0.996C818.511,644.887,817.396,643.771,816.021,643.771z"/>
<line fill="none" stroke="#999999" stroke-width="0.6974" stroke-miterlimit="10" x1="808.548" y1="634.805" x2="808.548" y2="643.771"/>
<text transform="matrix(1 0 0 1 924.1162 633.9219)" fill="#666666" font-family="'TheSans-SemiBoldItalic'" font-size="7.6514">enfant</text>
<g>
	<text transform="matrix(1 0 0 1 809.3892 718.1562)"><tspan x="0" y="0" font-family="'TheSans-BoldPlain'" font-size="10.4728">L</tspan><tspan x="4.681" y="0" font-family="'TheSans-BoldPlain'" font-size="10.4728">angage</tspan><tspan x="38.644" y="0" font-family="'TheSans-BoldPlain'" font-size="10.4728" letter-spacing="3">s</tspan><tspan x="46.069" y="0" font-family="'TheSans-BoldPlain'" font-size="10.4728">d</tspan><tspan x="51.913" y="0" font-family="'TheSans-BoldPlain'" font-size="10.4728" letter-spacing="3">e</tspan><tspan x="60.354" y="0" font-family="'TheSans-BoldPlain'" font-size="10.4728">balisage</tspan></text>
	<rect x="850.89" y="598.938" fill="#0081BC" width="19.926" height="5.978"/>
	<rect x="811.039" y="613.883" fill="#0081BC" width="19.926" height="5.978"/>
	
		<line fill="none" stroke="#999999" stroke-width="0.6974" stroke-miterlimit="10" x1="852.883" y1="604.916" x2="828.972" y2="613.883"/>
	<rect x="823.493" y="628.826" fill="#0081BC" width="19.925" height="5.979"/>
	
		<line fill="none" stroke="#999999" stroke-width="0.6974" stroke-miterlimit="10" x1="823.493" y1="619.86" x2="830.965" y2="628.826"/>
	<path fill="#59ADD3" d="M840.928,643.771h-14.944c-1.375,0-2.491,1.115-2.491,2.49v0.996c0,1.375,1.115,2.49,2.491,2.49h14.944
		c1.375,0,2.49-1.115,2.49-2.49v-0.996C843.418,644.887,842.303,643.771,840.928,643.771z"/>
	
		<line fill="none" stroke="#999999" stroke-width="0.6974" stroke-miterlimit="10" x1="833.456" y1="634.805" x2="833.456" y2="643.771"/>
	<rect x="850.89" y="658.715" fill="#0081BC" width="19.926" height="5.979"/>
	
		<line fill="none" stroke="#999999" stroke-width="0.6974" stroke-miterlimit="10" x1="860.853" y1="604.916" x2="860.853" y2="658.715"/>
	<rect x="825.983" y="673.66" fill="#0081BC" width="19.925" height="5.977"/>
	
		<line fill="none" stroke="#999999" stroke-width="0.6974" stroke-miterlimit="10" x1="855.872" y1="664.693" x2="840.927" y2="673.66"/>
	<path fill="#59ADD3" d="M843.418,688.604h-14.944c-1.375,0-2.491,1.115-2.491,2.49v0.996c0,1.377,1.115,2.492,2.491,2.492h14.944
		c1.376,0,2.491-1.115,2.491-2.492v-0.996C845.909,689.719,844.794,688.604,843.418,688.604z"/>
	
		<line fill="none" stroke="#999999" stroke-width="0.6974" stroke-miterlimit="10" x1="835.946" y1="679.637" x2="835.946" y2="688.604"/>
	<rect x="850.89" y="673.66" fill="#0081BC" width="19.926" height="5.977"/>
	
		<line fill="none" stroke="#999999" stroke-width="0.6974" stroke-miterlimit="10" x1="860.853" y1="664.693" x2="860.853" y2="673.66"/>
	<path fill="#59ADD3" d="M868.325,688.604h-14.944c-1.375,0-2.491,1.115-2.491,2.49v0.996c0,1.377,1.115,2.492,2.491,2.492h14.944
		c1.375,0,2.491-1.115,2.491-2.492v-0.996C870.816,689.719,869.701,688.604,868.325,688.604z"/>
	
		<line fill="none" stroke="#999999" stroke-width="0.6974" stroke-miterlimit="10" x1="860.853" y1="679.637" x2="860.853" y2="688.604"/>
	<rect x="875.797" y="673.66" fill="#0081BC" width="19.925" height="5.977"/>
	
		<line fill="none" stroke="#999999" stroke-width="0.6974" stroke-miterlimit="10" x1="865.834" y1="664.693" x2="880.779" y2="673.66"/>
	<path fill="#59ADD3" d="M893.232,688.604h-14.944c-1.375,0-2.49,1.115-2.49,2.49v0.996c0,1.377,1.115,2.492,2.49,2.492h14.944
		c1.375,0,2.491-1.115,2.491-2.492v-0.996C895.723,689.719,894.607,688.604,893.232,688.604z"/>
	
		<line fill="none" stroke="#999999" stroke-width="0.6974" stroke-miterlimit="10" x1="885.76" y1="679.637" x2="885.76" y2="688.604"/>
	<rect x="890.741" y="613.883" fill="#0081BC" width="19.926" height="5.978"/>
	
		<line fill="none" stroke="#999999" stroke-width="0.6974" stroke-miterlimit="10" x1="868.823" y1="604.916" x2="892.734" y2="613.883"/>
	<rect x="878.288" y="628.826" fill="#0081BC" width="19.926" height="5.979"/>
	
		<line fill="none" stroke="#999999" stroke-width="0.6974" stroke-miterlimit="10" x1="898.213" y1="619.86" x2="890.741" y2="628.826"/>
	<path fill="#59ADD3" d="M895.723,643.771h-14.944c-1.375,0-2.491,1.115-2.491,2.49v0.996c0,1.375,1.115,2.49,2.491,2.49h14.944
		c1.375,0,2.491-1.115,2.491-2.49v-0.996C898.213,644.887,897.098,643.771,895.723,643.771z"/>
	
		<line fill="none" stroke="#999999" stroke-width="0.6974" stroke-miterlimit="10" x1="888.25" y1="634.805" x2="888.25" y2="643.771"/>
	<rect x="903.195" y="628.826" fill="#0081BC" width="19.925" height="5.979"/>
	
		<line fill="none" stroke="#999999" stroke-width="0.6974" stroke-miterlimit="10" x1="903.195" y1="619.86" x2="910.667" y2="628.826"/>
	<path fill="#59ADD3" d="M920.629,643.771h-14.944c-1.375,0-2.491,1.115-2.491,2.49v0.996c0,1.375,1.115,2.49,2.491,2.49h14.944
		c1.376,0,2.491-1.115,2.491-2.49v-0.996C923.12,644.887,922.005,643.771,920.629,643.771z"/>
	
		<line fill="none" stroke="#999999" stroke-width="0.6974" stroke-miterlimit="10" x1="913.158" y1="634.805" x2="913.158" y2="643.771"/>
	<text transform="matrix(1 0 0 1 871.8892 603.8984)" fill="#666666" font-family="'TheSans-SemiBoldItalic'" font-size="7.6514">racine</text>
	<text transform="matrix(1 0 0 1 913.6548 618.373)" fill="#666666" font-family="'TheSans-SemiBoldItalic'" font-size="7.6514">parent</text>
	
		<rect x="824.389" y="672.064" fill="none" stroke="#808080" stroke-width="0.6974" stroke-miterlimit="10" width="72.928" height="9.166"/>
	<text transform="matrix(1 0 0 1 902.4419 678.7539)" fill="#666666" font-family="'TheSans-SemiBoldItalic'" font-size="7.6514">frères</text>
</g>
<g>
	<text transform="matrix(1 0 0 1 1023.6133 718.8613)" font-family="'TheSans-BoldPlain'" font-size="10.4728">RDF</text>
	<path fill="#59ADD3" d="M1010.059,613.111h-14.943c-1.376,0-2.49,1.115-2.49,2.491v0.997c0,1.375,1.114,2.49,2.49,2.49h14.943
		c1.376,0,2.491-1.115,2.491-2.49v-0.997C1012.55,614.227,1011.435,613.111,1010.059,613.111z"/>
	<path fill="#59ADD3" d="M1079.799,623.074h-14.944c-1.376,0-2.491,1.115-2.491,2.491v0.996c0,1.376,1.115,2.491,2.491,2.491h14.944
		c1.375,0,2.49-1.115,2.49-2.491v-0.996C1082.289,624.189,1081.174,623.074,1079.799,623.074z"/>
	<path fill="#59ADD3" d="M1020.022,682.852h-14.944c-1.376,0-2.491,1.115-2.491,2.49v0.996c0,1.375,1.115,2.49,2.491,2.49h14.944
		c1.375,0,2.49-1.115,2.49-2.49v-0.996C1022.513,683.967,1021.397,682.852,1020.022,682.852z"/>
	<path fill="#59ADD3" d="M1049.91,643h-14.944c-1.375,0-2.49,1.115-2.49,2.49v0.997c0,1.376,1.115,2.491,2.49,2.491h14.944
		c1.376,0,2.491-1.115,2.491-2.491v-0.997C1052.401,644.115,1051.286,643,1049.91,643z"/>
	<path fill="#59ADD3" d="M1069.836,672.889h-14.944c-1.376,0-2.49,1.115-2.49,2.49v0.996c0,1.377,1.114,2.492,2.49,2.492h14.944
		c1.375,0,2.49-1.115,2.49-2.492v-0.996C1072.326,674.004,1071.211,672.889,1069.836,672.889z"/>
	<path fill="#59ADD3" d="M1010.059,652.963h-14.943c-1.376,0-2.49,1.115-2.49,2.49v0.996c0,1.377,1.114,2.491,2.49,2.491h14.943
		c1.376,0,2.491-1.114,2.491-2.491v-0.996C1012.55,654.078,1011.435,652.963,1010.059,652.963z"/>
	<path fill="#59ADD3" d="M1089.762,652.963h-14.944c-1.376,0-2.491,1.115-2.491,2.49v0.996c0,1.377,1.115,2.491,2.491,2.491h14.944
		c1.375,0,2.49-1.114,2.49-2.491v-0.996C1092.252,654.078,1091.137,652.963,1089.762,652.963z"/>
	<path fill="#59ADD3" d="M1089.762,692.814h-14.944c-1.376,0-2.491,1.115-2.491,2.49v0.996c0,1.375,1.115,2.49,2.491,2.49h14.944
		c1.375,0,2.49-1.115,2.49-2.49v-0.996C1092.252,693.93,1091.137,692.814,1089.762,692.814z"/>
	<path fill="#59ADD3" d="M1015.041,633.037h-14.945c-1.375,0-2.49,1.115-2.49,2.491v0.996c0,1.376,1.115,2.491,2.49,2.491h14.945
		c1.375,0,2.49-1.115,2.49-2.491v-0.996C1017.531,634.152,1016.416,633.037,1015.041,633.037z"/>
	<path fill="none" stroke="#1A8EC3" stroke-width="0.8966" stroke-miterlimit="10" d="M1012.55,615.775
		c19.987-0.628,31.653,1.055,45.953,5.756"/>
	<path fill="#0081BC" d="M1063.199,623.074c-1.306-0.718-3.31-2.244-4.575-3.672l-1.286,3.914
		C1059.203,622.918,1061.723,622.878,1063.199,623.074"/>
	<text transform="matrix(1 0 0 1 1023.7139 612.3623)" fill="#666666" font-family="'TheSans-SemiBoldItalic'" font-size="7.6514">propriété</text>
	<path fill="none" stroke="#1A8EC3" stroke-width="0.8966" stroke-miterlimit="10" d="M1049.249,643
		c8.628-4.016,13.216-7.223,16.444-10.447"/>
	<path fill="#0081BC" d="M1069.198,629.053c-1.232,0.842-3.504,1.943-5.353,2.428l2.917,2.921
		C1067.25,632.553,1068.354,630.284,1069.198,629.053"/>
	<path fill="none" stroke="#1A8EC3" stroke-width="0.8966" stroke-miterlimit="10" d="M1045.293,648.979
		c7.688,8.133,11.316,13.637,13.801,19.379"/>
	<path fill="#0081BC" d="M1061.053,672.889c-0.329-1.451-0.518-3.959-0.289-5.85l-3.775,1.633
		C1058.522,669.801,1060.221,671.654,1061.053,672.889"/>
	<path fill="none" stroke="#1A8EC3" stroke-width="0.8966" stroke-miterlimit="10" d="M1052.4,646.691
		c9.335,0.84,14.703,2.291,18.708,4.17"/>
	<path fill="#0081BC" d="M1075.588,652.963c-1.21-0.871-3.018-2.631-4.102-4.202l-1.752,3.733
		C1071.637,652.324,1074.144,652.59,1075.588,652.963"/>
	<path fill="none" stroke="#1A8EC3" stroke-width="0.8966" stroke-miterlimit="10" d="M1032.476,644.951
		c-7.623-1.011-11.947-2.379-14.389-3.652"/>
	<path fill="#0081BC" d="M1013.711,639.016c1.17,0.919,2.896,2.748,3.91,4.359l1.903-3.646
		C1017.622,639.818,1015.135,639.449,1013.711,639.016"/>
	<path fill="none" stroke="#1A8EC3" stroke-width="0.8966" stroke-miterlimit="10" d="M1052.4,674.4
		c-18.082-2.941-28.309-6.512-39.973-13.041"/>
	<path fill="#0081BC" d="M1008.106,658.94c1.146,0.957,2.823,2.842,3.793,4.489l2.016-3.602
		C1012.005,659.861,1009.521,659.418,1008.106,658.94"/>
	<path fill="none" stroke="#1A8EC3" stroke-width="0.8966" stroke-miterlimit="10" d="M1003.03,658.94
		c1.415,9.72,3.247,15.261,5.558,19.554"/>
	<path fill="#0081BC" d="M1010.932,682.852c-0.452-1.422-0.855-3.91-0.789-5.818l-3.631,1.953
		C1008.141,679.982,1009.995,681.691,1010.932,682.852"/>
	<path fill="none" stroke="#1A8EC3" stroke-width="0.8966" stroke-miterlimit="10" d="M1082.816,658.94
		c2.293,13.009,2.293,20.864,0.856,29.013"/>
	<path fill="#0081BC" d="M1082.816,692.814c0.523-1.393,1.747-3.592,2.978-5.045l-4.051-0.715
		C1082.402,688.842,1082.8,691.326,1082.816,692.814"/>
	<path fill="none" stroke="#1A8EC3" stroke-width="0.8966" stroke-miterlimit="10" d="M1072.326,696.129
		c-19.986,0.627-31.653-1.055-45.953-5.756"/>
	<path fill="#0081BC" d="M1021.677,688.828c1.306,0.719,3.31,2.246,4.575,3.674l1.287-3.914
		C1025.673,688.986,1023.154,689.025,1021.677,688.828"/>
	<text transform="matrix(1 0 0 1 972.2148 618.0713)" fill="#666666" font-family="'TheSans-SemiBoldItalic'" font-size="7.6514">sujet</text>
	<text transform="matrix(1 0 0 1 1086.4561 628.1689)" fill="#666666" font-family="'TheSans-SemiBoldItalic'" font-size="7.6514">objet</text>
</g>
</svg>
